<svg width="28" height="24" viewBox="0 0 28 24" fill="none" xmlns="http://www.w3.org/2000/svg">
<g clip-path="url(#clip0_880_22368)">
<path d="M15.4 17.21C15.4 13.6387 18.2219 10.7412 21.7 10.7412C25.1781 10.7412 28 13.6387 28 17.21C28 20.7812 25.1781 23.6787 21.7 23.6787C18.2219 23.6787 15.4 20.7812 15.4 17.21ZM24.6444 16.2801C24.92 16.0016 24.92 15.5434 24.6444 15.2648C24.3731 14.9818 23.9269 14.9818 23.6557 15.2648L21 17.9916L19.7444 16.7023C19.4731 16.4193 19.0269 16.4193 18.7556 16.7023C18.48 16.9809 18.48 17.4391 18.7556 17.7176L20.5057 19.5145C20.7769 19.7975 21.2231 19.7975 21.4944 19.5145L24.6444 16.2801Z" fill="url(#paint0_linear_880_22368)"/>
<path d="M0 1.75684C0 1.16162 0.470313 0.678711 1.05 0.678711H4.2C4.70312 0.678711 5.13625 1.04662 5.2325 1.55514L5.29812 2.11621H23.7037C24.5919 2.11621 25.3006 3.02588 25.0512 3.94273L23.52 9.52383C22.9381 9.38008 22.3256 9.30371 21.7 9.30371C18.7075 9.30371 16.1131 11.0557 14.84 13.6162H7.46812L7.87062 15.7725H14.1269C14.0044 16.2396 13.9606 16.7203 13.9606 17.21C13.9606 17.4525 14.0087 17.6906 14.0306 17.9287H6.96063C6.49688 17.9287 6.06375 17.5604 5.9675 17.0527L3.33113 2.83496H1.05C0.470313 2.83496 0 2.3525 0 1.75684ZM9.8 21.5225C9.8 22.7129 8.85938 23.6787 7.7 23.6787C6.54063 23.6787 5.6 22.7129 5.6 21.5225C5.6 20.332 6.54063 19.3662 7.7 19.3662C8.85938 19.3662 9.8 20.332 9.8 21.5225Z" fill="url(#paint1_linear_880_22368)"/>
</g>
<defs>
<linearGradient id="paint0_linear_880_22368" x1="15.5517" y1="13.1117" x2="18.0807" y2="24.7971" gradientUnits="userSpaceOnUse">
<stop offset="1.02546e-07" stop-color="#FF6E6E" stop-opacity="0.47"/>
<stop offset="0.247" stop-color="#FF6565" stop-opacity="0.62"/>
<stop offset="0.6561" stop-color="#FF4B4B" stop-opacity="0.73"/>
<stop offset="1" stop-color="#FF3131" stop-opacity="0.8"/>
</linearGradient>
<linearGradient id="paint1_linear_880_22368" x1="2.03847" y1="2.11301" x2="21.1775" y2="23.941" gradientUnits="userSpaceOnUse">
<stop offset="1.07673e-07" stop-color="#70747F"/>
<stop offset="0.9944" stop-color="#1F222E"/>
</linearGradient>
<clipPath id="clip0_880_22368">
<rect width="28" height="23" fill="white" transform="translate(0 0.678711)"/>
</clipPath>
</defs>
</svg>
