<svg width="28" height="26" viewBox="0 0 28 26" fill="none" xmlns="http://www.w3.org/2000/svg">
<path d="M27 15.9533C25.1777 15.9533 23.6629 17.2596 23.3438 18.9822C19.7223 19.0284 16.275 19.8897 13.3152 20.5833C13.0366 20.7047 12.7638 20.7741 12.4911 20.8377C9.54866 21.566 7.02991 22.1209 4.70848 22.1787C4.575 20.2481 2.96683 18.7278 1 18.7278V10.4041C2.82116 10.4041 4.33705 9.09779 4.60402 7.37524C8.27768 7.329 11.725 6.46773 14.6848 5.72206C14.9634 5.6527 15.2362 5.58333 15.4567 5.51975C18.4513 4.79143 20.9701 4.23651 23.2915 4.17871C23.425 6.10935 25.0326 7.62958 27 7.62958V15.9533Z" fill="url(#paint0_linear_880_22354)"/>
<path d="M2.36542 4.54239C6.24167 5.60538 10.1208 4.61368 14 3.62052C18.2292 2.538 22.4583 1.45499 26.6875 3.04093C27.509 3.34903 28 4.17569 28 5.05655V20.1855C28 21.3525 26.7556 22.1239 25.6326 21.8163C21.7583 20.7519 17.8792 21.7431 14 22.7343C9.72708 23.8183 5.49792 24.9023 1.31104 23.3153C0.489028 23.0077 0 22.1825 0 21.2987V6.17179C0 5.00431 1.24493 4.23478 2.36542 4.54239ZM24.8889 8.44718C23.241 8.44718 21.8944 7.20695 21.7826 5.57609C19.8382 5.62491 17.7285 6.09366 15.2201 6.7089C15.0354 6.76261 14.8069 6.8212 14.5736 6.8798C12.0944 7.50968 9.20694 8.23722 6.12986 8.27628C5.90625 9.73136 4.63653 10.7909 3.06736 10.7909V17.8661C4.75854 17.8661 6.10556 19.1503 6.21736 20.7812C8.16181 20.7323 10.2715 20.2636 12.7361 19.6484C12.9646 19.5946 13.1931 19.536 13.4264 19.4335C15.9056 18.8476 18.7931 18.12 21.8264 18.081C22.0938 16.6259 23.3625 15.5224 24.8889 15.5224V8.44718Z" fill="url(#paint1_linear_880_22354)"/>
<path d="M17.8889 13.1787C17.8889 15.7666 16.1486 17.8662 14 17.8662C11.8514 17.8662 10.1111 15.7666 10.1111 13.1787C10.1111 10.5469 11.8514 8.49121 14 8.49121C16.1486 8.49121 17.8889 10.5469 17.8889 13.1787Z" fill="url(#paint2_linear_880_22354)"/>
<defs>
<linearGradient id="paint0_linear_880_22354" x1="3.11141" y1="5.30121" x2="17.0234" y2="26.3006" gradientUnits="userSpaceOnUse">
<stop offset="1.07673e-07" stop-color="#70747F" stop-opacity="0.83"/>
<stop offset="0.9944" stop-color="#1F222E" stop-opacity="0.98"/>
</linearGradient>
<linearGradient id="paint1_linear_880_22354" x1="2.27383" y1="3.60531" x2="19.8832" y2="27.1604" gradientUnits="userSpaceOnUse">
<stop offset="1.07673e-07" stop-color="#70747F"/>
<stop offset="0.9944" stop-color="#1F222E"/>
</linearGradient>
<linearGradient id="paint2_linear_880_22354" x1="10.2047" y1="10.2089" x2="12.3202" y2="18.5358" gradientUnits="userSpaceOnUse">
<stop offset="1.02546e-07" stop-color="#FF6E6E" stop-opacity="0.47"/>
<stop offset="0.247" stop-color="#FF6565" stop-opacity="0.62"/>
<stop offset="0.6561" stop-color="#FF4B4B" stop-opacity="0.73"/>
<stop offset="1" stop-color="#FF3131" stop-opacity="0.8"/>
</linearGradient>
</defs>
</svg>
