<svg width="28" height="24" viewBox="0 0 28 24" fill="none" xmlns="http://www.w3.org/2000/svg">
<g clip-path="url(#clip0_880_22347)">
<path d="M1.3125e-05 2.83496C1.3125e-05 1.64408 0.940187 0.678711 2.1 0.678711H16.1C17.2594 0.678711 18.2 1.64408 18.2 2.83496V4.99121H20.4181C21.1619 4.99121 21.8356 5.29219 22.4 5.83125L25.7819 9.30371C26.3069 9.84277 26.6 10.575 26.6 11.3387V16.4912C27.3744 16.4912 28 17.1336 28 17.9287C28 18.7238 27.3744 19.3662 26.6 19.3662H25.1519C24.8106 16.927 22.7675 15.0537 20.3 15.0537C17.8325 15.0537 15.7894 16.927 15.4481 19.3662H12.5519C12.2106 16.927 10.1675 15.0537 7.7 15.0537C5.2325 15.0537 3.18937 16.927 2.84944 19.3662H2.1C0.940187 19.3662 0 18.4004 0 17.21L1.3125e-05 2.83496ZM23.8 12.1787V11.3387L20.4181 7.86621H18.2V12.1787H23.8Z" fill="url(#paint0_linear_880_22347)"/>
<path d="M11.2 20.085C11.2 22.0705 9.6337 23.6787 7.69995 23.6787C5.7662 23.6787 4.19995 22.0705 4.19995 20.085C4.19995 18.0994 5.7662 16.4912 7.69995 16.4912C9.6337 16.4912 11.2 18.0994 11.2 20.085ZM23.7999 20.085C23.7999 22.0705 22.2337 23.6787 20.2999 23.6787C18.3662 23.6787 16.7999 22.0705 16.7999 20.085C16.7999 18.0994 18.3662 16.4912 20.2999 16.4912C22.2337 16.4912 23.7999 18.0994 23.7999 20.085Z" fill="url(#paint1_linear_880_22347)"/>
<path d="M11.8257 3.87531C11.9701 3.57703 11.8957 3.21541 11.6507 3.00203C11.4013 2.78821 11.0382 2.77877 10.7801 2.97867L5.1801 7.29117C4.93947 7.47535 4.83885 7.79879 4.9351 8.09528C4.99197 8.38727 5.29822 8.58492 5.6001 8.58492H7.96697L6.37447 11.8552C6.2301 12.1562 6.30447 12.5156 6.54947 12.7312C6.79885 12.9423 7.16197 12.9558 7.4201 12.7537L13.0201 8.44117C13.2607 8.25699 13.3613 7.93356 13.2651 7.63707C13.1688 7.34508 12.902 7.10699 12.6001 7.10699H10.2332L11.8257 3.87531Z" fill="url(#paint2_linear_880_22347)"/>
</g>
<defs>
<linearGradient id="paint0_linear_880_22347" x1="2.27383" y1="1.84408" x2="16.5044" y2="24.1256" gradientUnits="userSpaceOnUse">
<stop offset="1.07673e-07" stop-color="#70747F"/>
<stop offset="0.9944" stop-color="#1F222E"/>
</linearGradient>
<linearGradient id="paint1_linear_880_22347" x1="5.79163" y1="16.9394" x2="9.56138" y2="27.682" gradientUnits="userSpaceOnUse">
<stop offset="1.07673e-07" stop-color="#70747F"/>
<stop offset="0.9944" stop-color="#1F222E"/>
</linearGradient>
<linearGradient id="paint2_linear_880_22347" x1="5.00006" y1="4.67871" x2="7.25794" y2="13.6233" gradientUnits="userSpaceOnUse">
<stop offset="1.02546e-07" stop-color="#FF6E6E" stop-opacity="0.47"/>
<stop offset="0.247" stop-color="#FF6565" stop-opacity="0.62"/>
<stop offset="0.6561" stop-color="#FF4B4B" stop-opacity="0.73"/>
<stop offset="1" stop-color="#FF3131" stop-opacity="0.8"/>
</linearGradient>
<clipPath id="clip0_880_22347">
<rect width="28" height="23" fill="white" transform="translate(0 0.678711)"/>
</clipPath>
</defs>
</svg>
