<?xml version="1.0" encoding="UTF-8"?>
<!DOCTYPE svg PUBLIC "-//W3C//DTD SVG 1.1//EN" "http://www.w3.org/Graphics/SVG/1.1/DTD/svg11.dtd">
<!-- Creator: CorelDRAW 2020 (64-Bit) -->
<svg xmlns="http://www.w3.org/2000/svg" xml:space="preserve" width="209.127mm" height="88.2544mm" version="1.1" style="shape-rendering:geometricPrecision; text-rendering:geometricPrecision; image-rendering:optimizeQuality; fill-rule:evenodd; clip-rule:evenodd"
viewBox="0 0 18933.36 7990.14"
 xmlns:xlink="http://www.w3.org/1999/xlink"
 xmlns:xodm="http://www.corel.com/coreldraw/odm/2003">
 <defs>
  <style type="text/css">
   <![CDATA[
    .fil0 {fill:#FCC200}
    .fil1 {fill:black}
    .fil3 {fill:#FAB700;fill-rule:nonzero}
    .fil2 {fill:black;fill-rule:nonzero}
   ]]>
  </style>
 </defs>
 <g id="Layer_x0020_1">
  <metadata id="CorelCorpID_0Corel-Layer"/>
  <g id="_2787785400224">
   <path class="fil0" d="M4410.02 1784.02l0 4001.12c0,1212.76 -992.26,2205.02 -2205.01,2205.02l-0.01 0c-1212.76,0 -2205.02,-992.26 -2205.02,-2205.02l0 -1450.02 683.32 -395.29 0 1845.31c0,835.59 686.11,1521.69 1521.7,1521.69 835.58,0 1521.69,-686.11 1521.69,-1521.69l0 -3605.84 683.32 -395.28z"/>
   <path class="fil1" d="M3186.81 2515.06l0 1.65 0 715.15 0 915.1 -651.79 394.83 0 -854.28 -628.5 366.33 0 1671.01c0,162.81 135.67,298.48 298.49,298.48 162.81,0 298.48,-135.67 298.48,-298.48l0 -244.85 683.32 -394.83 0 639.69c0,539.99 -441.81,981.8 -981.8,981.8 -540,0 -981.8,-441.8 -981.8,-981.8l0 -1358.75 0 -715.15c654.99,-378.9 1308.43,-756.9 1963.6,-1135.89z"/>
   <path class="fil2" d="M8273.85 4949.5c-379,0 -689.79,-15.92 -932.36,-47.77 -242.56,-31.81 -433.57,-89.42 -573.06,-172.81 -139.46,-83.37 -234.98,-198.61 -286.52,-345.65 -51.55,-147.06 -77.32,-335.8 -77.32,-566.25l0 -1996.61 918.71 0 0 1700.99c0,157.68 9.09,283.51 27.28,377.51 18.2,93.99 60.66,165.99 127.35,216.02 66.72,50.04 163.74,82.64 291.09,97.78 127.35,15.16 298.66,22.76 513.92,22.76l77.34 0c215.27,0 386.57,-8.35 513.92,-25.02 127.35,-16.69 223.61,-50.02 288.82,-100.05 65.18,-50.04 107.62,-122.05 127.33,-216.04 19.7,-93.99 29.57,-218.3 29.57,-372.94l0 -1700.99 918.71 0 0 1996.61c0,230.45 -25.01,419.2 -75.04,566.25 -50.01,147.04 -144.01,262.27 -281.98,345.65 -137.95,83.39 -328.2,141 -570.77,172.81 -242.58,31.85 -556.38,47.77 -941.46,47.77l-95.51 0zm4291.95 0c-427.52,0 -773.19,-16.68 -1036.97,-50.03 -263.78,-33.36 -466.94,-103.84 -609.45,-211.48 -142.49,-107.65 -238,-263.03 -286.53,-466.18 -48.52,-203.14 -72.77,-472.99 -72.77,-809.57l0 -90.94c0,-224.37 9.11,-417.68 27.31,-579.91 18.19,-162.19 53.82,-300.17 106.86,-413.87 53.07,-113.69 125.84,-206.18 218.32,-277.44 92.48,-71.23 213.01,-126.57 361.56,-166.01 148.58,-39.41 328.24,-65.94 538.96,-79.58 210.74,-13.65 461.63,-20.47 752.72,-20.47l140.98 0c382.05,0 688.28,14.41 918.73,43.2 230.43,28.82 408.58,81.12 534.38,156.92 125.84,75.8 208.46,180.41 247.89,313.81 39.41,133.41 59.12,304.71 59.12,513.92l0 145.54 -891.43 0 0 -62.9c0,-75.04 -7.58,-137.98 -22.74,-189.5 -15.16,-50.8 -52.3,-92.48 -111.42,-123.57 -59.13,-31.84 -148.58,-54.57 -268.36,-69.74 -119.75,-15.16 -285.77,-22.73 -498,-22.73l-77.34 0c-257.71,0 -460.86,6.81 -609.43,20.46 -148.57,13.65 -260,49.28 -334.28,106.89 -74.29,56.86 -120.54,142.49 -138.74,256.22 -18.19,112.94 -27.28,269.84 -27.28,469.21l0 54.58c0,196.31 9.09,350.18 27.28,460.1 18.2,110.67 64.44,194.81 138.74,251.67 74.28,57.61 185.72,93.23 334.28,106.89 148.57,13.63 351.72,20.46 609.43,20.46l77.34 0c218.29,0 389.62,-6.07 513.92,-18.19 124.32,-12.14 218.32,-34.87 281.98,-68.24 63.68,-33.35 103.09,-79.58 118.26,-138.7 15.15,-59.15 22.74,-135.7 22.74,-229.7l0 -50.01 891.43 0 0 186.47c0,197.08 -20.47,362.32 -61.42,495.74 -40.93,133.4 -125.06,239.53 -252.4,318.36 -127.36,78.83 -308.53,134.92 -543.49,168.29 -234.99,33.35 -548.06,50.03 -939.2,50.03l-140.98 0z"/>
   <path class="fil3" d="M7999.02 6881.28l-1547.24 0 0 -1408.47 1522.39 0 0 310.71 -1108.13 0 0 240.24 1050.13 0 0 294.14 -1050.13 0 0 242.33 1132.98 0 0 321.05zm2012.6 0l-542.68 0 -468.1 -511.61 -470.18 511.61 -540.6 0 693.88 -706.3 -644.17 -702.17 519.89 0 441.17 492.96 441.2 -492.96 519.87 0 -644.15 702.17 693.86 706.3zm952.12 -679.37c77.34,0 138.77,-2.43 184.36,-7.24 45.56,-4.85 79.73,-14.17 102.51,-27.98 22.78,-13.8 37.29,-33.83 43.5,-60.07 6.21,-26.25 9.33,-60.75 9.33,-103.55l0 -18.65c0,-42.81 -3.11,-77.66 -9.33,-104.6 -6.21,-26.93 -20.72,-47.29 -43.5,-61.11 -22.78,-13.8 -56.96,-23.12 -102.51,-27.95 -45.58,-4.84 -107.02,-7.24 -184.36,-7.24l-484.67 0 0 418.39 484.67 0zm-484.67 679.37l-414.26 0 0 -1408.47 969.35 0c138.1,0 251.33,6.57 339.7,19.68 88.36,13.11 157.76,37.97 208.17,74.57 50.4,36.58 84.9,87.67 103.55,153.26 18.64,65.59 27.97,150.87 27.97,255.81l0 37.29c0,104.94 -9.33,190.2 -27.97,255.78 -18.65,65.59 -53.15,116.69 -103.55,153.29 -50.41,36.58 -119.81,61.44 -208.17,74.56 -88.37,13.11 -201.6,19.66 -339.7,19.66l-555.09 0 0 364.55zm2283.94 -698.02c71.82,0 129.12,-2.07 171.94,-6.2 42.79,-4.16 75.23,-13.14 97.34,-26.93 22.09,-13.81 36.58,-33.14 43.48,-58 6.92,-24.85 10.36,-57.31 10.36,-97.34l0 -24.86c0,-40.04 -3.44,-72.14 -10.36,-96.3 -6.91,-24.16 -21.75,-43.16 -44.53,-56.96 -22.78,-13.82 -55.23,-22.8 -97.34,-26.93 -42.12,-4.16 -99.07,-6.21 -170.89,-6.21l-521.95 0 0 399.74 521.95 0zm745.67 698.02l-414.26 0 0 -113.92c0,-62.14 -4.47,-111.51 -13.45,-148.09 -8.98,-36.6 -28.32,-64.55 -58,-83.89 -29.7,-19.35 -73.52,-31.76 -131.52,-37.27 -58,-5.54 -135.33,-8.28 -231.99,-8.28l-418.39 0 0 391.46 -414.26 0 0 -1408.47 1103.99 0c115.99,0 211.26,7.24 285.83,21.76 74.56,14.49 133.6,38.31 177.11,71.45 43.48,33.14 73.52,76.99 90.1,131.52 16.57,54.54 24.85,122.55 24.85,204.02l0 49.71c0,110.47 -18.3,194.69 -54.9,252.68 -36.59,58 -100.44,97.37 -191.58,118.07l0 8.29c49.71,8.28 90.8,18.64 123.25,31.06 32.45,12.44 57.65,30.74 75.61,54.9 17.94,24.16 30.37,56.27 37.27,96.31 6.9,40.03 10.36,91.13 10.36,153.26l0 215.42zm1714.33 0l-1547.24 0 0 -1408.47 1522.38 0 0 310.71 -1108.12 0 0 240.24 1050.12 0 0 294.14 -1050.12 0 0 242.33 1132.98 0 0 321.05zm1838.6 -426.67c0,86.98 -8.95,159.14 -26.91,216.45 -17.95,57.3 -54.9,102.86 -110.82,136.69 -55.91,33.83 -135.66,57.31 -239.23,70.42 -103.55,13.13 -241.64,19.68 -414.24,19.68l-66.28 0c-132.56,0 -246.47,-2.42 -341.77,-7.24 -95.27,-4.84 -175,-13.14 -239.23,-24.86 -64.21,-11.74 -115.62,-27.62 -154.31,-47.63 -38.65,-20.04 -67.98,-45.93 -88.02,-77.68 -20.04,-31.76 -33.14,-69.72 -39.35,-113.92 -6.23,-44.19 -9.33,-95.96 -9.33,-155.34l0 -51.79 414.24 0 0 37.29c0,28.99 4.85,52.8 14.52,71.45 9.67,18.65 29.68,32.79 60.05,42.47 30.39,9.67 73.52,16.22 129.47,19.66 55.92,3.47 130.14,5.2 222.66,5.2l51.77 0c100.81,0 179.5,-2.07 236.14,-6.21 56.61,-4.16 99.05,-11.05 127.37,-20.72 28.32,-9.67 45.91,-22.78 52.83,-39.35 6.9,-16.57 10.34,-37.99 10.34,-64.21l0 -8.28c0,-27.62 -3.78,-50.06 -11.37,-67.32 -7.6,-17.27 -26.25,-30.72 -55.92,-40.39 -29.7,-9.67 -74.92,-16.22 -135.68,-19.68 -60.77,-3.44 -144.3,-5.17 -250.61,-5.17 -129.82,0 -240.97,-2.43 -333.49,-7.25 -92.53,-4.84 -170.53,-13.13 -234.04,-24.85 -63.54,-11.75 -114.28,-27.62 -152.25,-47.66 -37.96,-20.01 -66.97,-45.9 -86.98,-77.66 -20.04,-31.75 -33.14,-69.74 -39.37,-113.91 -6.21,-44.2 -9.31,-95.99 -9.31,-155.35l0 -10.36c0,-86.99 9.31,-158.45 27.96,-214.38 18.64,-55.92 54.9,-100.11 108.74,-132.56 53.84,-32.45 129.79,-54.54 227.83,-66.28 98.04,-11.72 227.16,-17.61 387.33,-17.61l84.93 0c193.31,0 345.9,6.92 457.74,20.72 111.87,13.8 196.08,36.92 252.69,69.38 56.61,32.45 92.52,75.25 107.71,128.42 15.18,53.15 22.78,119.09 22.78,197.81l0 43.48 -414.24 0 0 -22.78c0,-24.86 -3.11,-46.25 -9.33,-64.21 -6.2,-17.95 -21.39,-32.45 -45.56,-43.5 -24.16,-11.04 -60.41,-18.98 -108.74,-23.82 -48.33,-4.83 -114.61,-7.24 -198.84,-7.24l-62.13 0c-99.42,0 -177.79,1.39 -235.1,4.15 -57.3,2.75 -100.11,8.96 -128.41,18.63 -28.32,9.67 -46.27,23.14 -53.87,40.39 -7.59,17.26 -11.37,40.39 -11.37,69.4l0 8.28c0,24.85 3.78,44.87 11.37,60.07 7.6,15.19 27.63,26.92 60.08,35.2 32.45,8.28 81.12,13.47 146.02,15.53 64.9,2.08 155.34,3.12 271.33,3.12 179.5,0 323.13,5.17 430.83,15.53 107.71,10.37 190.57,31.06 248.56,62.15 57.99,31.06 95.96,74.91 113.91,131.52 17.95,56.61 26.91,131.87 26.91,225.76l0 10.37zm1871.75 0c0,86.98 -8.95,159.14 -26.92,216.45 -17.95,57.3 -54.9,102.86 -110.82,136.69 -55.91,33.83 -135.65,57.31 -239.23,70.42 -103.55,13.13 -241.63,19.68 -414.24,19.68l-66.28 0c-132.57,0 -246.48,-2.42 -341.77,-7.24 -95.27,-4.84 -175.01,-13.14 -239.24,-24.86 -64.2,-11.74 -115.62,-27.62 -154.3,-47.63 -38.66,-20.04 -67.99,-45.93 -88.03,-77.68 -20.03,-31.76 -33.14,-69.72 -39.35,-113.92 -6.23,-44.19 -9.33,-95.96 -9.33,-155.34l0 -51.79 414.24 0 0 37.29c0,28.99 4.84,52.8 14.51,71.45 9.67,18.65 29.68,32.79 60.05,42.47 30.39,9.67 73.52,16.22 129.47,19.66 55.92,3.47 130.14,5.2 222.66,5.2l51.77 0c100.81,0 179.5,-2.07 236.14,-6.21 56.61,-4.16 99.05,-11.05 127.37,-20.72 28.31,-9.67 45.9,-22.78 52.82,-39.35 6.91,-16.57 10.35,-37.99 10.35,-64.21l0 -8.28c0,-27.62 -3.79,-50.06 -11.38,-67.32 -7.6,-17.27 -26.25,-30.72 -55.92,-40.39 -29.7,-9.67 -74.91,-16.22 -135.68,-19.68 -60.77,-3.44 -144.29,-5.17 -250.61,-5.17 -129.82,0 -240.97,-2.43 -333.49,-7.25 -92.53,-4.84 -170.53,-13.13 -234.04,-24.85 -63.54,-11.75 -114.28,-27.62 -152.24,-47.66 -37.97,-20.01 -66.98,-45.9 -86.99,-77.66 -20.04,-31.75 -33.14,-69.74 -39.37,-113.91 -6.21,-44.2 -9.3,-95.99 -9.3,-155.35l0 -10.36c0,-86.99 9.3,-158.45 27.95,-214.38 18.64,-55.92 54.9,-100.11 108.74,-132.56 53.84,-32.45 129.8,-54.54 227.83,-66.28 98.04,-11.72 227.16,-17.61 387.33,-17.61l84.93 0c193.31,0 345.91,6.92 457.75,20.72 111.86,13.8 196.07,36.92 252.68,69.38 56.61,32.45 92.53,75.25 107.71,128.42 15.18,53.15 22.78,119.09 22.78,197.81l0 43.48 -414.24 0 0 -22.78c0,-24.86 -3.12,-46.25 -9.33,-64.21 -6.21,-17.95 -21.39,-32.45 -45.56,-43.5 -24.16,-11.04 -60.42,-18.98 -108.75,-23.82 -48.33,-4.83 -114.61,-7.24 -198.84,-7.24l-62.13 0c-99.43,0 -177.8,1.39 -235.1,4.15 -57.31,2.75 -100.11,8.96 -128.42,18.63 -28.32,9.67 -46.27,23.14 -53.86,40.39 -7.6,17.26 -11.38,40.39 -11.38,69.4l0 8.28c0,24.85 3.78,44.87 11.38,60.07 7.59,15.19 27.62,26.92 60.07,35.2 32.45,8.28 81.12,13.47 146.02,15.53 64.9,2.08 155.35,3.12 271.33,3.12 179.51,0 323.13,5.17 430.84,15.53 107.7,10.37 190.56,31.06 248.56,62.15 58,31.06 95.96,74.91 113.91,131.52 17.96,56.61 26.92,131.87 26.92,225.76l0 10.37z"/>
   <path class="fil2" d="M6425.58 7984.26l0 -560.56 235.03 0 21.29 0c63.31,0 106.3,12.18 129.42,36.56 22.98,24.38 34.47,69.89 34.47,136.72 0,64.01 -12.05,107.7 -36.02,130.96 -23.95,23.26 -68.9,34.87 -134.88,34.87l-24.66 0.41 -161.63 0 0 221.04 -63.01 0zm63.01 -273.98l149.74 0c62.76,0 102.82,-6.45 120.48,-19.34 17.63,-12.87 26.45,-42.57 26.45,-89.08 0,-54.34 -5.88,-88.81 -17.78,-103.24 -11.9,-14.42 -40.2,-21.57 -84.73,-21.57l-24.25 -0.41 -169.9 0 0 233.63zm927.32 -291.62c105.91,0 172.15,15.4 198.76,46.35 26.47,30.96 39.78,108.14 39.78,231.82 0,133.21 -12.75,215.44 -38.22,246.53 -25.36,31.23 -92.17,46.79 -200.16,46.79 -107.58,0 -174.25,-15.4 -200.16,-46.36 -25.92,-30.95 -38.79,-110.92 -38.79,-239.95l0 -39.35 0.82 -52.95c0,-74.25 16.69,-124.95 50.3,-152.12 33.46,-27.18 96.09,-40.76 187.68,-40.76zm-0.28 52.94c-88.65,0 -140.48,9.82 -155.48,29.57 -14.98,19.75 -22.53,87.39 -22.53,202.95 0,115.98 7.55,183.77 22.53,203.52 14.99,19.75 66.82,29.55 155.48,29.55 88.82,0 140.78,-9.8 155.78,-29.55 14.99,-19.75 22.54,-87.55 22.54,-203.52l0 -36.56 -0.42 -52.95c0,-61.89 -10.36,-101.26 -31.11,-117.92 -20.85,-16.68 -69.74,-25.09 -146.79,-25.09zm1384.52 -47.89l-176.34 560.56 -96.09 0 -117.79 -403.53 -14.71 -50.57c-0.84,-2.79 -3.22,-11.05 -7.01,-25.07l-7.42 -25.49 -1.12 0 -7.01 25.49 -7.42 25.48 -15.12 50.99 -119.91 402.71 -94.41 0 -171.87 -560.56 64.86 0 120.6 402.99 16.4 54.47c1.4,4.5 4.19,13.45 8.27,27.2l7.83 27.45 1.12 0 7.85 -27.45 7.83 -27.2 15.99 -54.19 118.91 -403.27 93.57 0 118.22 403.68 15.96 53.78 7.42 27.6 7.85 27.04 1.25 0 8.14 -27.45 8.27 -27.6 16.8 -54.91 123.11 -402.14 65.98 0zm385.26 52.95l0 191.6 284.07 0 0 52.95 -284.07 0 0 210.1 296.67 0 0 52.95 -359.71 0 0 -560.56 359.71 0 0 52.95 -296.67 0zm666.79 507.6l0 -560.56 267.1 0c60.1,0 102.54,11.9 127.2,35.72 24.51,23.81 36.84,65 36.84,123.82 0,51.69 -6.73,87.68 -20.04,107.99 -13.3,20.47 -38.8,33.62 -76.49,39.65l0 1.26c59.26,4.35 88.96,40.47 88.96,108.42l0 143.71 -63.04 0 0 -129.28c0,-65.7 -28.43,-98.48 -85.17,-98.48l-21 0 -191.34 0 0 227.75 -63.02 0zm63.02 -280.7l183.07 0c48.05,0 80.82,-7.29 98.34,-21.97 17.5,-14.71 26.17,-42.32 26.17,-82.79 0,-50.7 -6.42,-83.75 -19.47,-99.18 -12.87,-15.26 -40.61,-22.95 -83.2,-22.95l-204.92 0 0 226.9zm791.18 -226.9l0 191.6 284.08 0 0 52.95 -284.08 0 0 210.1 296.67 0 0 52.95 -359.7 0 0 -560.56 359.7 0 0 52.95 -296.67 0zm666.8 507.6l0 -560.56 259.11 0c80.26,0 134.46,17.65 162.92,52.95 28.42,35.28 42.72,102.95 42.72,202.95 0,121.44 -12.61,202.67 -37.97,243.43 -25.35,40.78 -75.78,61.22 -151.56,61.22l-275.23 0zm63.01 -52.95l182.66 0c66.95,0 110.09,-13.44 129.43,-40.32 19.47,-26.92 29.12,-86.86 29.12,-179.86 0,-101.97 -8.39,-166.54 -25.21,-193.72 -16.8,-27.17 -57,-40.75 -120.59,-40.75l-195.41 0 0 454.65zm985.62 52.95l0 -560.56 247.62 0c68.79,0 113.74,9.39 134.9,28.29 21.16,18.9 31.81,58.82 31.81,119.76 0,62.06 -23.97,101.28 -71.87,117.8l0 1.1c59.1,14.3 88.67,58.28 88.67,131.96 0,59.54 -11.63,101.42 -35.02,125.49 -23.26,24.1 -63.88,36.15 -121.72,36.15l-274.39 0zm63.01 -314.32l166.27 0c52.67,0 86.57,-6.29 101.83,-18.9 15.14,-12.61 22.69,-40.76 22.69,-84.32 0,-37.82 -6.57,-62.32 -19.88,-73.4 -13.17,-11.05 -42.44,-16.66 -87.39,-16.66l-183.51 0 0 193.28zm0 261.37l134.18 0 56.87 -0.42c47.92,0 79.44,-6.29 94.27,-18.78 14.84,-12.46 22.26,-39.07 22.26,-79.41 0,-50.43 -7.42,-81.23 -22.42,-92.72 -14.97,-11.35 -55.74,-17.09 -122.27,-17.09l-162.91 0 0 208.41zm1169.52 -507.6l-211.78 326.5 0 234.06 -63.04 0 0 -234.06 -206.46 -326.5 73.52 0 120.19 189.36 22.97 36.56c2.94,4.35 6.86,10.37 11.46,18.07l11.08 18.5 1.53 0c5.04,-8.27 8.7,-14.28 11.08,-18.5l11.05 -18.07 23.4 -36.56 119.89 -189.36 75.09 0zm932.36 152.12l-62.74 0c0,-45.1 -7.57,-73.81 -22.56,-86.01 -15.12,-12.19 -50.55,-18.22 -106.3,-18.22 -66.26,0 -108.83,5.88 -128.04,17.52 -19.18,11.62 -28.71,37.54 -28.71,77.72 0,45.1 7.57,72.71 22.56,82.5 15.13,9.82 59.8,16.53 134.32,20.19 87.27,3.76 142.73,14.84 166.39,33.18 23.69,18.34 35.59,59.4 35.59,123.26 0,68.92 -13.59,113.59 -40.91,133.78 -27.17,20.31 -87.39,30.39 -180.39,30.39 -80.69,0 -134.46,-10.23 -161.23,-30.55 -26.61,-20.44 -39.94,-61.63 -39.94,-123.39l-0.41 -25.07 62.76 0 0 14c0,50.29 7.7,81.53 22.97,93.7 15.4,12.19 54.62,18.35 117.79,18.35 72.56,0 117.1,-6.17 133.78,-18.35 16.66,-12.18 25.08,-44.67 25.08,-97.62 0,-34.3 -5.76,-57.15 -17.09,-68.63 -11.35,-11.34 -35.02,-18.07 -71.15,-20.32l-65.69 -3.35 -62.34 -3.22c-95.1,-6.58 -142.58,-55.75 -142.58,-147.65 0,-63.57 13.87,-106.17 41.47,-127.46 27.58,-21.29 82.76,-31.93 165.4,-31.93 83.78,0 138.4,9.95 163.89,29.7 25.35,19.75 38.1,62.19 38.1,127.46zm416.35 -99.16l0 191.6 284.08 0 0 52.95 -284.08 0 0 210.1 296.67 0 0 52.95 -359.7 0 0 -560.56 359.7 0 0 52.95 -296.67 0zm666.8 507.6l0 -560.56 267.1 0c60.09,0 102.53,11.9 127.19,35.72 24.52,23.81 36.84,65 36.84,123.82 0,51.69 -6.73,87.68 -20.03,107.99 -13.31,20.47 -38.81,33.62 -76.49,39.65l0 1.26c59.26,4.35 88.95,40.47 88.95,108.42l0 143.71 -63.03 0 0 -129.28c0,-65.7 -28.43,-98.48 -85.18,-98.48l-21 0 -191.34 0 0 227.75 -63.01 0zm63.01 -280.7l183.08 0c48.04,0 80.81,-7.29 98.34,-21.97 17.5,-14.71 26.17,-42.32 26.17,-82.79 0,-50.7 -6.43,-83.75 -19.47,-99.18 -12.87,-15.26 -40.61,-22.95 -83.2,-22.95l-204.93 0 0 226.9zm1114.06 -279.85l67.67 0 -198.22 560.56 -90.35 0 -200.16 -560.56 67.24 0 149.46 423.43 14.71 43.13c5.45,16.68 9.95,31.11 13.58,43.16l1.54 0c8.27,-27.73 17.37,-56.18 27.6,-85.45l146.93 -424.28zm469.01 0l0 560.56 -63.01 0 0 -560.56 63.01 0zm765.25 373.13l62.75 0 0 21.44c0,76.48 -13.02,124.23 -38.94,143.29 -26.04,19.07 -91.46,28.58 -196.23,28.58 -93.86,0 -153.52,-16.81 -178.88,-50.29 -25.48,-33.47 -38.24,-112.35 -38.24,-236.42 0,-97.22 2.94,-158.16 8.69,-183.23 5.74,-25.08 22.14,-47.33 49.18,-67.09 31.78,-22.97 100.29,-34.46 205.61,-34.46 71.43,0 119.47,11.05 144.27,33.21 24.79,21.97 37.12,64.7 37.12,128.02l0.41 15.26 -62.73 0 -0.43 -17.22c0,-45.1 -7.27,-74.09 -21.97,-86.99 -14.59,-12.89 -47.64,-19.34 -99.19,-19.34 -90.34,0 -145.39,7.57 -165.42,22.56 -20.04,15.12 -29.97,56.87 -29.97,125.36 0,157.58 6.73,249.88 20.04,277.07 13.44,27.02 59.25,40.61 137.41,40.61 74.37,0 120.88,-5.88 139.23,-17.78 18.5,-11.77 27.74,-41.6 27.74,-89.24l-0.43 -33.34zm464.4 -320.18l0 191.6 284.08 0 0 52.95 -284.08 0 0 210.1 296.67 0 0 52.95 -359.7 0 0 -560.56 359.7 0 0 52.95 -296.67 0z"/>
   <polygon class="fil0" points="5121.77,0 5238.35,0 5238.35,7990.14 5121.77,7990.14 "/>
  </g>
 </g>
</svg>
