<svg version="1.2" xmlns="http://www.w3.org/2000/svg" viewBox="0 0 1150 1581" width="1150" height="1581">
	<title>uc logo-svg</title>
	<style>
		.s0 { fill: #fcc200 } 
		.s1 { fill: #ffffff } 
	</style>
	<g id="Layer_x0020_1">
		<g id="_2787785400224">
			<path id="Layer" fill-rule="evenodd" class="s0" d="m1102.8 30v1000.3c0 303.2-248.1 551.2-551.3 551.2-303.2 0-551.3-248-551.3-551.2v-362.5l170.9-98.8v461.3c0 208.9 171.5 380.4 380.4 380.4 208.9 0 380.4-171.5 380.4-380.4v-901.5l170.9-98.8z"/>
			<path id="Layer" fill-rule="evenodd" class="s1" d="m797 212.8v0.4 178.8 228.7l-163 98.7v-213.5l-157.1 91.6v417.7c0 40.7 33.9 74.6 74.6 74.6 40.7 0 74.6-33.9 74.6-74.6v-61.2l170.9-98.7v159.9c0 135-110.5 245.5-245.5 245.5-135 0-245.4-110.5-245.4-245.5v-339.7-178.8c163.7-94.7 327.1-189.2 490.9-283.9z"/>
		</g>
	</g>
</svg>