<svg width="28" height="29" viewBox="0 0 28 29" fill="none" xmlns="http://www.w3.org/2000/svg">
<path d="M2.625 7.12949L24.5 7.17871C24.5219 7.17871 24.5492 7.17871 24.5711 7.17871C25.1836 7.19512 25.7523 7.37559 26.25 7.66543V7.64902C27.2945 8.25059 28 9.38262 28 10.6787V22.9287C28 24.8592 26.4305 26.4287 24.5 26.4287H3.5C1.5668 26.4287 0 24.8592 0 22.9287V4.55371C0 6.00293 1.17523 7.17871 2.625 7.17871V7.12949Z" fill="url(#paint0_linear_880_22361)"/>
<path d="M0 4.55371C0 3.10395 1.17523 1.92871 2.625 1.92871H23.625C25.0742 1.92871 26.25 3.10395 26.25 4.55371V7.64902C25.7359 7.34824 25.1398 7.17871 24.5 7.17871H2.625C1.17523 7.17871 0 6.00293 0 4.55371Z" fill="url(#paint1_linear_880_22361)"/>
<path d="M24.5 16.8037C24.5 17.7717 23.718 18.5537 22.75 18.5537C21.782 18.5537 21 17.7717 21 16.8037C21 15.8357 21.782 15.0537 22.75 15.0537C23.718 15.0537 24.5 15.8357 24.5 16.8037Z" fill="url(#paint2_linear_880_22361)"/>
<defs>
<linearGradient id="paint0_linear_880_22361" x1="2.27383" y1="5.91785" x2="19.884" y2="29.4732" gradientUnits="userSpaceOnUse">
<stop offset="1.07673e-07" stop-color="#70747F"/>
<stop offset="0.9944" stop-color="#1F222E"/>
</linearGradient>
<linearGradient id="paint1_linear_880_22361" x1="2.13171" y1="2.28543" x2="4.0507" y2="11.4878" gradientUnits="userSpaceOnUse">
<stop offset="1.07673e-07" stop-color="#70747F"/>
<stop offset="0.9944" stop-color="#1F222E"/>
</linearGradient>
<linearGradient id="paint2_linear_880_22361" x1="21.0421" y1="15.695" x2="21.71" y2="18.8636" gradientUnits="userSpaceOnUse">
<stop offset="1.02546e-07" stop-color="#FF6E6E" stop-opacity="0.47"/>
<stop offset="0.247" stop-color="#FF6565" stop-opacity="0.62"/>
<stop offset="0.6561" stop-color="#FF4B4B" stop-opacity="0.73"/>
<stop offset="1" stop-color="#FF3131" stop-opacity="0.8"/>
</linearGradient>
</defs>
</svg>
